<svg id="correo" xmlns="http://www.w3.org/2000/svg" width="27" height="18.984" viewBox="0 0 27 18.984">
    <g id="Group_5345" data-name="Group 5345">
        <path id="Path_5051" data-name="Path 5051" d="M24.627,76H2.373A2.377,2.377,0,0,0,0,78.373V92.611a2.377,2.377,0,0,0,2.373,2.373H24.627A2.376,2.376,0,0,0,27,92.611V78.373A2.375,2.375,0,0,0,24.627,76Zm-.332,1.582-9.117,9.069a2.373,2.373,0,0,1-3.357,0L2.705,77.582ZM1.582,92.289V78.7l6.836,6.8ZM2.706,93.4l6.834-6.79L10.7,87.769a3.955,3.955,0,0,0,5.592,0l1.165-1.159,6.834,6.79Zm22.712-1.113L18.582,85.5l6.836-6.8Z" transform="translate(0 -76)" fill="#707070"/>
    </g>
</svg>
