<svg xmlns="http://www.w3.org/2000/svg" width="21.089" height="21.089" viewBox="0 0 21.089 21.089">
    <g id="usuario_1_" data-name="usuario (1)" transform="translate(0)">
        <g id="Group_5339" data-name="Group 5339" transform="translate(0)">
            <path id="Path_5044" data-name="Path 5044" d="M18,13.633a10.5,10.5,0,0,0-4.007-2.513,6.1,6.1,0,1,0-6.9,0A10.561,10.561,0,0,0,0,21.089H1.648a8.9,8.9,0,0,1,17.794,0h1.648A10.476,10.476,0,0,0,18,13.633Zm-7.456-3.088A4.448,4.448,0,1,1,14.993,6.1,4.453,4.453,0,0,1,10.544,10.544Z" transform="translate(0)" fill="#5b4f41"/>
        </g>
    </g>
</svg>
