<svg xmlns="http://www.w3.org/2000/svg" width="16.686" height="24.151" viewBox="0 0 16.686 24.151">
    <g id="bloquear" transform="translate(0.5 0.5)">
        <g id="Group_5344" data-name="Group 5344">
            <g id="Group_5343" data-name="Group 5343" transform="translate(0)">
                <path id="Path_5049" data-name="Path 5049" d="M95.344,8.992V5.6a5.6,5.6,0,0,0-11.2,0V8.992A2.62,2.62,0,0,0,81.9,11.576v8.96a2.619,2.619,0,0,0,2.616,2.616H94.97a2.619,2.619,0,0,0,2.616-2.616v-8.96A2.616,2.616,0,0,0,95.344,8.992ZM84.89,5.6a4.854,4.854,0,1,1,9.707,0V8.96H84.89ZM96.839,20.535A1.871,1.871,0,0,1,94.97,22.4H84.516a1.871,1.871,0,0,1-1.868-1.869v-8.96a1.871,1.871,0,0,1,1.868-1.869H94.97a1.871,1.871,0,0,1,1.868,1.869Z" transform="translate(-81.9)" fill="#707070" stroke="#707070" stroke-width="1"/>
                <path id="Path_5050" data-name="Path 5050" d="M216.737,288.569a1.869,1.869,0,1,0-3.737,0,1.847,1.847,0,0,0,.7,1.449l-.378,2.661h3.1l-.378-2.661A1.848,1.848,0,0,0,216.737,288.569Zm-1.5,1.085.324,2.279h-1.381l.324-2.279a1.37,1.37,0,0,1-.757-1.085,1.121,1.121,0,1,1,2.242,0A1.35,1.35,0,0,1,215.233,289.653Z" transform="translate(-207.025 -273.634)" fill="#707070" stroke="#707070" stroke-width="1"/>
            </g>
        </g>
    </g>
</svg>
