<svg xmlns="http://www.w3.org/2000/svg" width="23.956" height="23.956" viewBox="0 0 23.956 23.956">
    <g id="button" transform="translate(1.1 0.75)">
        <path id="whatsapp" d="M11.053,0A11.1,11.1,0,0,0,0,11.053a10.979,10.979,0,0,0,1.565,5.66L0,22.105l5.392-1.565a10.979,10.979,0,0,0,5.66,1.565A11.053,11.053,0,0,0,11.053,0Zm6.91,15.723-.514.514c-.728.728-2.4.67-3.476.462-3.575-.69-7.743-4.73-8.547-8.229-.4-1.733-.178-3.24.4-3.815l.514-.514a.728.728,0,0,1,1.028,0L9.423,6.2a.728.728,0,0,1,0,1.028l-.514.515a1.457,1.457,0,0,0,0,2.057l3.4,3.352a1.454,1.454,0,0,0,2.057,0l.514-.514a.76.76,0,0,1,1.029,0l2.057,2.057a.727.727,0,0,1,0,1.029Zm0,0" transform="translate(0 0)" fill="none" stroke="#5b4f41" stroke-width="1.5"/>
    </g>
</svg>
